<mxfile host="app.diagrams.net" agent="Mozilla/5.0 (Windows NT 10.0; Win64; x64; rv:138.0) Gecko/20100101 Firefox/138.0" version="26.2.14">
  <diagram name="Page-1" id="gb7Gw2XNI1SLBGmauAqg">
    <mxGraphModel grid="1" page="1" gridSize="10" guides="1" tooltips="1" connect="1" arrows="1" fold="1" pageScale="1" pageWidth="850" pageHeight="1100" math="0" shadow="0">
      <root>
        <mxCell id="0" />
        <mxCell id="1" parent="0" />
        <mxCell id="IKSXEYO8-DhQJpJwxMUt-1" value="User" style="shape=table;startSize=25;container=1;collapsible=0;childLayout=tableLayout;fixedRows=1;rowLines=1;fontStyle=1;align=center;resizeLast=1;labelBackgroundColor=none;fillColor=#dae8fc;strokeColor=#6c8ebf;" vertex="1" parent="1">
          <mxGeometry x="295" y="20" width="100" height="68" as="geometry" />
        </mxCell>
        <mxCell id="IKSXEYO8-DhQJpJwxMUt-2" style="shape=tableRow;horizontal=0;startSize=0;swimlaneHead=0;swimlaneBody=0;fillColor=none;collapsible=0;dropTarget=0;points=[[0,0.5],[1,0.5]];portConstraint=eastwest;top=0;left=0;right=0;bottom=0;" vertex="1" parent="IKSXEYO8-DhQJpJwxMUt-1">
          <mxGeometry y="25" width="100" height="21" as="geometry" />
        </mxCell>
        <mxCell id="IKSXEYO8-DhQJpJwxMUt-3" value="string" style="shape=partialRectangle;connectable=0;fillColor=none;top=0;left=0;bottom=0;right=0;align=left;spacingLeft=2;overflow=hidden;fontSize=11;" vertex="1" parent="IKSXEYO8-DhQJpJwxMUt-2">
          <mxGeometry width="36" height="21" as="geometry">
            <mxRectangle width="36" height="21" as="alternateBounds" />
          </mxGeometry>
        </mxCell>
        <mxCell id="IKSXEYO8-DhQJpJwxMUt-4" value="id" style="shape=partialRectangle;connectable=0;fillColor=none;top=0;left=0;bottom=0;right=0;align=left;spacingLeft=2;overflow=hidden;fontSize=11;" vertex="1" parent="IKSXEYO8-DhQJpJwxMUt-2">
          <mxGeometry x="36" width="64" height="21" as="geometry">
            <mxRectangle width="64" height="21" as="alternateBounds" />
          </mxGeometry>
        </mxCell>
        <mxCell id="IKSXEYO8-DhQJpJwxMUt-5" style="shape=tableRow;horizontal=0;startSize=0;swimlaneHead=0;swimlaneBody=0;fillColor=none;collapsible=0;dropTarget=0;points=[[0,0.5],[1,0.5]];portConstraint=eastwest;top=0;left=0;right=0;bottom=0;" vertex="1" parent="IKSXEYO8-DhQJpJwxMUt-1">
          <mxGeometry y="46" width="100" height="21" as="geometry" />
        </mxCell>
        <mxCell id="IKSXEYO8-DhQJpJwxMUt-6" value="string" style="shape=partialRectangle;connectable=0;fillColor=none;top=0;left=0;bottom=0;right=0;align=left;spacingLeft=2;overflow=hidden;fontSize=11;" vertex="1" parent="IKSXEYO8-DhQJpJwxMUt-5">
          <mxGeometry width="36" height="21" as="geometry">
            <mxRectangle width="36" height="21" as="alternateBounds" />
          </mxGeometry>
        </mxCell>
        <mxCell id="IKSXEYO8-DhQJpJwxMUt-7" value="password" style="shape=partialRectangle;connectable=0;fillColor=none;top=0;left=0;bottom=0;right=0;align=left;spacingLeft=2;overflow=hidden;fontSize=11;" vertex="1" parent="IKSXEYO8-DhQJpJwxMUt-5">
          <mxGeometry x="36" width="64" height="21" as="geometry">
            <mxRectangle width="64" height="21" as="alternateBounds" />
          </mxGeometry>
        </mxCell>
        <mxCell id="IKSXEYO8-DhQJpJwxMUt-8" value="Budget" style="shape=table;startSize=25;container=1;collapsible=0;childLayout=tableLayout;fixedRows=1;rowLines=1;fontStyle=1;align=center;resizeLast=1;fillColor=#d5e8d4;strokeColor=#82b366;" vertex="1" parent="1">
          <mxGeometry x="145" y="188" width="100" height="68" as="geometry" />
        </mxCell>
        <mxCell id="IKSXEYO8-DhQJpJwxMUt-9" style="shape=tableRow;horizontal=0;startSize=0;swimlaneHead=0;swimlaneBody=0;fillColor=none;collapsible=0;dropTarget=0;points=[[0,0.5],[1,0.5]];portConstraint=eastwest;top=0;left=0;right=0;bottom=0;" vertex="1" parent="IKSXEYO8-DhQJpJwxMUt-8">
          <mxGeometry y="25" width="100" height="21" as="geometry" />
        </mxCell>
        <mxCell id="IKSXEYO8-DhQJpJwxMUt-10" value="string" style="shape=partialRectangle;connectable=0;fillColor=none;top=0;left=0;bottom=0;right=0;align=left;spacingLeft=2;overflow=hidden;fontSize=11;" vertex="1" parent="IKSXEYO8-DhQJpJwxMUt-9">
          <mxGeometry width="44.99999999999994" height="21" as="geometry">
            <mxRectangle width="44.99999999999994" height="21" as="alternateBounds" />
          </mxGeometry>
        </mxCell>
        <mxCell id="IKSXEYO8-DhQJpJwxMUt-11" value="name" style="shape=partialRectangle;connectable=0;fillColor=none;top=0;left=0;bottom=0;right=0;align=left;spacingLeft=2;overflow=hidden;fontSize=11;" vertex="1" parent="IKSXEYO8-DhQJpJwxMUt-9">
          <mxGeometry x="44.99999999999994" width="55.00000000000006" height="21" as="geometry">
            <mxRectangle width="55.00000000000006" height="21" as="alternateBounds" />
          </mxGeometry>
        </mxCell>
        <mxCell id="IKSXEYO8-DhQJpJwxMUt-12" style="shape=tableRow;horizontal=0;startSize=0;swimlaneHead=0;swimlaneBody=0;fillColor=none;collapsible=0;dropTarget=0;points=[[0,0.5],[1,0.5]];portConstraint=eastwest;top=0;left=0;right=0;bottom=0;" vertex="1" parent="IKSXEYO8-DhQJpJwxMUt-8">
          <mxGeometry y="46" width="100" height="21" as="geometry" />
        </mxCell>
        <mxCell id="IKSXEYO8-DhQJpJwxMUt-13" value="double" style="shape=partialRectangle;connectable=0;fillColor=none;top=0;left=0;bottom=0;right=0;align=left;spacingLeft=2;overflow=hidden;fontSize=11;" vertex="1" parent="IKSXEYO8-DhQJpJwxMUt-12">
          <mxGeometry width="44.99999999999994" height="21" as="geometry">
            <mxRectangle width="44.99999999999994" height="21" as="alternateBounds" />
          </mxGeometry>
        </mxCell>
        <mxCell id="IKSXEYO8-DhQJpJwxMUt-14" value="limit" style="shape=partialRectangle;connectable=0;fillColor=none;top=0;left=0;bottom=0;right=0;align=left;spacingLeft=2;overflow=hidden;fontSize=11;" vertex="1" parent="IKSXEYO8-DhQJpJwxMUt-12">
          <mxGeometry x="44.99999999999994" width="55.00000000000006" height="21" as="geometry">
            <mxRectangle width="55.00000000000006" height="21" as="alternateBounds" />
          </mxGeometry>
        </mxCell>
        <mxCell id="IKSXEYO8-DhQJpJwxMUt-15" value="Expense" style="shape=table;startSize=25;container=1;collapsible=0;childLayout=tableLayout;fixedRows=1;rowLines=1;fontStyle=1;align=center;resizeLast=1;fillColor=#fff2cc;strokeColor=#d6b656;" vertex="1" parent="1">
          <mxGeometry x="145" y="355" width="100" height="68" as="geometry" />
        </mxCell>
        <mxCell id="IKSXEYO8-DhQJpJwxMUt-16" style="shape=tableRow;horizontal=0;startSize=0;swimlaneHead=0;swimlaneBody=0;fillColor=none;collapsible=0;dropTarget=0;points=[[0,0.5],[1,0.5]];portConstraint=eastwest;top=0;left=0;right=0;bottom=0;" vertex="1" parent="IKSXEYO8-DhQJpJwxMUt-15">
          <mxGeometry y="25" width="100" height="21" as="geometry" />
        </mxCell>
        <mxCell id="IKSXEYO8-DhQJpJwxMUt-17" value="string" style="shape=partialRectangle;connectable=0;fillColor=none;top=0;left=0;bottom=0;right=0;align=left;spacingLeft=2;overflow=hidden;fontSize=11;" vertex="1" parent="IKSXEYO8-DhQJpJwxMUt-16">
          <mxGeometry width="45" height="21" as="geometry">
            <mxRectangle width="45" height="21" as="alternateBounds" />
          </mxGeometry>
        </mxCell>
        <mxCell id="IKSXEYO8-DhQJpJwxMUt-18" value="desc" style="shape=partialRectangle;connectable=0;fillColor=none;top=0;left=0;bottom=0;right=0;align=left;spacingLeft=2;overflow=hidden;fontSize=11;" vertex="1" parent="IKSXEYO8-DhQJpJwxMUt-16">
          <mxGeometry x="45" width="55" height="21" as="geometry">
            <mxRectangle width="55" height="21" as="alternateBounds" />
          </mxGeometry>
        </mxCell>
        <mxCell id="IKSXEYO8-DhQJpJwxMUt-19" style="shape=tableRow;horizontal=0;startSize=0;swimlaneHead=0;swimlaneBody=0;fillColor=none;collapsible=0;dropTarget=0;points=[[0,0.5],[1,0.5]];portConstraint=eastwest;top=0;left=0;right=0;bottom=0;" vertex="1" parent="IKSXEYO8-DhQJpJwxMUt-15">
          <mxGeometry y="46" width="100" height="21" as="geometry" />
        </mxCell>
        <mxCell id="IKSXEYO8-DhQJpJwxMUt-20" value="double" style="shape=partialRectangle;connectable=0;fillColor=none;top=0;left=0;bottom=0;right=0;align=left;spacingLeft=2;overflow=hidden;fontSize=11;" vertex="1" parent="IKSXEYO8-DhQJpJwxMUt-19">
          <mxGeometry width="45" height="21" as="geometry">
            <mxRectangle width="45" height="21" as="alternateBounds" />
          </mxGeometry>
        </mxCell>
        <mxCell id="IKSXEYO8-DhQJpJwxMUt-21" value="amount" style="shape=partialRectangle;connectable=0;fillColor=none;top=0;left=0;bottom=0;right=0;align=left;spacingLeft=2;overflow=hidden;fontSize=11;" vertex="1" parent="IKSXEYO8-DhQJpJwxMUt-19">
          <mxGeometry x="45" width="55" height="21" as="geometry">
            <mxRectangle width="55" height="21" as="alternateBounds" />
          </mxGeometry>
        </mxCell>
        <mxCell id="IKSXEYO8-DhQJpJwxMUt-22" value="DataStore" style="shape=table;startSize=25;container=1;collapsible=0;childLayout=tableLayout;fixedRows=1;rowLines=1;fontStyle=1;align=center;resizeLast=1;fillColor=#ffe6cc;strokeColor=#d79b00;" vertex="1" parent="1">
          <mxGeometry x="345" y="199" width="100" height="46" as="geometry" />
        </mxCell>
        <mxCell id="IKSXEYO8-DhQJpJwxMUt-23" style="shape=tableRow;horizontal=0;startSize=0;swimlaneHead=0;swimlaneBody=0;fillColor=none;collapsible=0;dropTarget=0;points=[[0,0.5],[1,0.5]];portConstraint=eastwest;top=0;left=0;right=0;bottom=0;" vertex="1" parent="IKSXEYO8-DhQJpJwxMUt-22">
          <mxGeometry y="25" width="100" height="21" as="geometry" />
        </mxCell>
        <mxCell id="IKSXEYO8-DhQJpJwxMUt-24" value="string" style="shape=partialRectangle;connectable=0;fillColor=none;top=0;left=0;bottom=0;right=0;align=left;spacingLeft=2;overflow=hidden;fontSize=11;" vertex="1" parent="IKSXEYO8-DhQJpJwxMUt-23">
          <mxGeometry width="36" height="21" as="geometry">
            <mxRectangle width="36" height="21" as="alternateBounds" />
          </mxGeometry>
        </mxCell>
        <mxCell id="IKSXEYO8-DhQJpJwxMUt-25" value="DATA_FILE" style="shape=partialRectangle;connectable=0;fillColor=none;top=0;left=0;bottom=0;right=0;align=left;spacingLeft=2;overflow=hidden;fontSize=11;" vertex="1" parent="IKSXEYO8-DhQJpJwxMUt-23">
          <mxGeometry x="36" width="64" height="21" as="geometry">
            <mxRectangle width="64" height="21" as="alternateBounds" />
          </mxGeometry>
        </mxCell>
        <mxCell id="IKSXEYO8-DhQJpJwxMUt-26" value="Stack" style="shape=table;startSize=25;container=1;collapsible=0;childLayout=tableLayout;fixedRows=1;rowLines=1;fontStyle=1;align=center;resizeLast=1;fillColor=#f8cecc;strokeColor=#b85450;" vertex="1" parent="1">
          <mxGeometry x="20" y="523" width="100" height="46" as="geometry" />
        </mxCell>
        <mxCell id="IKSXEYO8-DhQJpJwxMUt-27" style="shape=tableRow;horizontal=0;startSize=0;swimlaneHead=0;swimlaneBody=0;fillColor=none;collapsible=0;dropTarget=0;points=[[0,0.5],[1,0.5]];portConstraint=eastwest;top=0;left=0;right=0;bottom=0;" vertex="1" parent="IKSXEYO8-DhQJpJwxMUt-26">
          <mxGeometry y="25" width="100" height="21" as="geometry" />
        </mxCell>
        <mxCell id="IKSXEYO8-DhQJpJwxMUt-28" value="Object" style="shape=partialRectangle;connectable=0;fillColor=none;top=0;left=0;bottom=0;right=0;align=left;spacingLeft=2;overflow=hidden;fontSize=11;" vertex="1" parent="IKSXEYO8-DhQJpJwxMUt-27">
          <mxGeometry width="39.999999999999986" height="21" as="geometry">
            <mxRectangle width="39.999999999999986" height="21" as="alternateBounds" />
          </mxGeometry>
        </mxCell>
        <mxCell id="IKSXEYO8-DhQJpJwxMUt-29" value="items" style="shape=partialRectangle;connectable=0;fillColor=none;top=0;left=0;bottom=0;right=0;align=left;spacingLeft=2;overflow=hidden;fontSize=11;" vertex="1" parent="IKSXEYO8-DhQJpJwxMUt-27">
          <mxGeometry x="39.999999999999986" width="60.000000000000014" height="21" as="geometry">
            <mxRectangle width="60.000000000000014" height="21" as="alternateBounds" />
          </mxGeometry>
        </mxCell>
        <mxCell id="IKSXEYO8-DhQJpJwxMUt-30" value="Queue" style="shape=table;startSize=25;container=1;collapsible=0;childLayout=tableLayout;fixedRows=1;rowLines=1;fontStyle=1;align=center;resizeLast=1;fillColor=#e1d5e7;strokeColor=#9673a6;" vertex="1" parent="1">
          <mxGeometry x="290" y="523" width="105" height="46" as="geometry" />
        </mxCell>
        <mxCell id="IKSXEYO8-DhQJpJwxMUt-31" style="shape=tableRow;horizontal=0;startSize=0;swimlaneHead=0;swimlaneBody=0;fillColor=none;collapsible=0;dropTarget=0;points=[[0,0.5],[1,0.5]];portConstraint=eastwest;top=0;left=0;right=0;bottom=0;" vertex="1" parent="IKSXEYO8-DhQJpJwxMUt-30">
          <mxGeometry y="25" width="105" height="21" as="geometry" />
        </mxCell>
        <mxCell id="IKSXEYO8-DhQJpJwxMUt-32" value="Object" style="shape=partialRectangle;connectable=0;fillColor=none;top=0;left=0;bottom=0;right=0;align=left;spacingLeft=2;overflow=hidden;fontSize=11;" vertex="1" parent="IKSXEYO8-DhQJpJwxMUt-31">
          <mxGeometry width="40.00000000000006" height="21" as="geometry">
            <mxRectangle width="40.00000000000006" height="21" as="alternateBounds" />
          </mxGeometry>
        </mxCell>
        <mxCell id="IKSXEYO8-DhQJpJwxMUt-33" value="actions" style="shape=partialRectangle;connectable=0;fillColor=none;top=0;left=0;bottom=0;right=0;align=left;spacingLeft=2;overflow=hidden;fontSize=11;" vertex="1" parent="IKSXEYO8-DhQJpJwxMUt-31">
          <mxGeometry x="40.00000000000006" width="64.99999999999994" height="21" as="geometry">
            <mxRectangle width="64.99999999999994" height="21" as="alternateBounds" />
          </mxGeometry>
        </mxCell>
        <mxCell id="IKSXEYO8-DhQJpJwxMUt-34" value="owns" style="curved=1;startArrow=ERmandOne;startSize=10;;endArrow=ERzeroToMany;endSize=10;;exitX=0;exitY=0.91;entryX=0.5;entryY=-0.01;rounded=0;edgeStyle=orthogonalEdgeStyle;" edge="1" parent="1" source="IKSXEYO8-DhQJpJwxMUt-1" target="IKSXEYO8-DhQJpJwxMUt-8">
          <mxGeometry x="0.2431" y="25" relative="1" as="geometry">
            <mxPoint as="offset" />
          </mxGeometry>
        </mxCell>
        <mxCell id="IKSXEYO8-DhQJpJwxMUt-35" value="contains" style="curved=1;startArrow=ERmandOne;startSize=10;;endArrow=ERzeroToMany;endSize=10;;exitX=0.5;exitY=0.99;entryX=0.5;entryY=0;rounded=0;" edge="1" parent="1" source="IKSXEYO8-DhQJpJwxMUt-8" target="IKSXEYO8-DhQJpJwxMUt-15">
          <mxGeometry relative="1" as="geometry">
            <Array as="points" />
          </mxGeometry>
        </mxCell>
        <mxCell id="IKSXEYO8-DhQJpJwxMUt-36" value="authenticates" style="curved=1;startArrow=ERmandOne;startSize=10;;endArrow=ERmandOne;endSize=10;;exitX=0.4;exitY=0.99;entryX=0.3;entryY=-0.01;rounded=0;edgeStyle=orthogonalEdgeStyle;" edge="1" parent="1" source="IKSXEYO8-DhQJpJwxMUt-1" target="IKSXEYO8-DhQJpJwxMUt-22">
          <mxGeometry x="0.1506" relative="1" as="geometry">
            <Array as="points">
              <mxPoint x="335" y="160" />
              <mxPoint x="375" y="160" />
            </Array>
            <mxPoint as="offset" />
          </mxGeometry>
        </mxCell>
        <mxCell id="IKSXEYO8-DhQJpJwxMUt-37" value="stores" style="curved=1;startArrow=ERmandOne;startSize=10;;endArrow=ERzeroToMany;endSize=10;;exitX=0.57;exitY=-0.01;entryX=0.8;entryY=0.99;rounded=0;edgeStyle=orthogonalEdgeStyle;" edge="1" parent="1" source="IKSXEYO8-DhQJpJwxMUt-22" target="IKSXEYO8-DhQJpJwxMUt-1">
          <mxGeometry relative="1" as="geometry">
            <Array as="points">
              <mxPoint x="402" y="120" />
              <mxPoint x="376" y="120" />
            </Array>
          </mxGeometry>
        </mxCell>
        <mxCell id="IKSXEYO8-DhQJpJwxMUt-38" value="tracked in" style="curved=1;startArrow=ERzeroToMany;startSize=10;;endArrow=ERmandOne;endSize=10;;exitX=0;exitY=0.9;entryX=0.42;entryY=0;rounded=0;edgeStyle=orthogonalEdgeStyle;" edge="1" parent="1" source="IKSXEYO8-DhQJpJwxMUt-8" target="IKSXEYO8-DhQJpJwxMUt-26">
          <mxGeometry x="0.0303" y="8" relative="1" as="geometry">
            <mxPoint as="offset" />
          </mxGeometry>
        </mxCell>
        <mxCell id="IKSXEYO8-DhQJpJwxMUt-39" value="tracked in" style="curved=1;startArrow=ERzeroToMany;startSize=10;;endArrow=ERmandOne;endSize=10;;exitX=0.5;exitY=1;entryX=0.89;entryY=0;rounded=0;edgeStyle=orthogonalEdgeStyle;" edge="1" parent="1" source="IKSXEYO8-DhQJpJwxMUt-15" target="IKSXEYO8-DhQJpJwxMUt-26">
          <mxGeometry relative="1" as="geometry" />
        </mxCell>
        <mxCell id="IKSXEYO8-DhQJpJwxMUt-40" value="modified in" style="curved=1;startArrow=ERmandOne;startSize=10;;endArrow=ERzeroToMany;endSize=10;;exitX=1;exitY=0.9;rounded=0;edgeStyle=orthogonalEdgeStyle;entryX=0.692;entryY=0.022;entryDx=0;entryDy=0;entryPerimeter=0;" edge="1" parent="1" source="IKSXEYO8-DhQJpJwxMUt-8" target="IKSXEYO8-DhQJpJwxMUt-30">
          <mxGeometry x="0.066" y="-24" relative="1" as="geometry">
            <mxPoint x="380" y="490" as="targetPoint" />
            <mxPoint as="offset" />
          </mxGeometry>
        </mxCell>
        <mxCell id="IKSXEYO8-DhQJpJwxMUt-41" value="modified in" style="curved=1;startArrow=ERmandOne;startSize=10;;endArrow=ERzeroToMany;endSize=10;;exitX=1;exitY=0.75;entryX=0.25;entryY=0;rounded=0;edgeStyle=orthogonalEdgeStyle;entryDx=0;entryDy=0;" edge="1" parent="1" source="IKSXEYO8-DhQJpJwxMUt-15" target="IKSXEYO8-DhQJpJwxMUt-30">
          <mxGeometry x="-0.4758" y="-14" relative="1" as="geometry">
            <mxPoint as="offset" />
          </mxGeometry>
        </mxCell>
      </root>
    </mxGraphModel>
  </diagram>
</mxfile>
